<?xml version="1.0" encoding="utf-8"?>
<!-- Generator: Adobe Illustrator 23.0.3, SVG Export Plug-In . SVG Version: 6.00 Build 0)  -->
<svg version="1.1" id="Layer_1" xmlns="http://www.w3.org/2000/svg" xmlns:xlink="http://www.w3.org/1999/xlink" x="0px" y="0px"
	 viewBox="0 0 400 400" style="enable-background:new 0 0 400 400;" xml:space="preserve">
<g>
	<path d="M8.2,200.2c0.5,7.9,5.7,14.5,13.2,16.8l139.9,42.3l5.1,96.5c0.2,3.8,2.8,7.2,6.5,8.4c1,0.4,2.1,0.5,3.1,0.5
		c2.7,0,5.3-1.1,7.2-3.2l49.5-54.8l70.1,48.5c3.1,2.2,6.8,3.4,10.6,3.4c8.8,0,16.4-6.2,18.3-15L390,47c0.7-3.4-0.6-7-3.3-9.2
		c-2.7-2.3-6.4-2.8-9.7-1.5L19.4,181.9C12.1,185.1,7.7,192.3,8.2,200.2z M184.3,331.8l-3.2-60.9l35.8,24.8L184.3,331.8z
		 M313.1,339.2l-127.6-88.4l179-173.1L313.1,339.2z M344.8,70.1L167.9,241.2L28.1,199L344.8,70.1z"/>
</g>
</svg>
